<?xml version="1.0" encoding="utf-8" standalone="no"?>
<!DOCTYPE svg PUBLIC "-//W3C//DTD SVG 1.1//EN"
  "http://www.w3.org/Graphics/SVG/1.1/DTD/svg11.dtd">
<svg xmlns:xlink="http://www.w3.org/1999/xlink" width="473.854125pt" height="236.849575pt" viewBox="0 0 473.854125 236.849575" xmlns="http://www.w3.org/2000/svg" version="1.1">
 <metadata>
  <rdf:RDF xmlns:dc="http://purl.org/dc/elements/1.1/" xmlns:cc="http://creativecommons.org/ns#" xmlns:rdf="http://www.w3.org/1999/02/22-rdf-syntax-ns#">
   <cc:Work>
    <dc:type rdf:resource="http://purl.org/dc/dcmitype/StillImage"/>
    <dc:date>2022-05-15T19:18:20.518659</dc:date>
    <dc:format>image/svg+xml</dc:format>
    <dc:creator>
     <cc:Agent>
      <dc:title>Matplotlib v3.5.1, https://matplotlib.org/</dc:title>
     </cc:Agent>
    </dc:creator>
   </cc:Work>
  </rdf:RDF>
 </metadata>
 <defs>
  <style type="text/css">*{stroke-linejoin: round; stroke-linecap: butt}</style>
 </defs>
 <g id="figure_1">
  <g id="patch_1">
   <path d="M 0 236.849575 
L 473.854125 236.849575 
L 473.854125 0 
L 0 0 
L 0 236.849575 
z
" style="fill: none"/>
  </g>
  <g id="axes_1">
   <g id="patch_2">
    <path d="M 49.828125 202.793325 
L 466.654125 202.793325 
L 466.654125 22.318125 
L 49.828125 22.318125 
z
" style="fill: #ffffff"/>
   </g>
   <g id="matplotlib.axis_1">
    <g id="xtick_1">
     <g id="line2d_1"/>
     <g id="text_1">
      <!-- 0 -->
      <g transform="translate(65.593511 213.891763)scale(0.1 -0.1)">
       <defs>
        <path id="DejaVuSans-30" d="M 2034 4250 
Q 1547 4250 1301 3770 
Q 1056 3291 1056 2328 
Q 1056 1369 1301 889 
Q 1547 409 2034 409 
Q 2525 409 2770 889 
Q 3016 1369 3016 2328 
Q 3016 3291 2770 3770 
Q 2525 4250 2034 4250 
z
M 2034 4750 
Q 2819 4750 3233 4129 
Q 3647 3509 3647 2328 
Q 3647 1150 3233 529 
Q 2819 -91 2034 -91 
Q 1250 -91 836 529 
Q 422 1150 422 2328 
Q 422 3509 836 4129 
Q 1250 4750 2034 4750 
z
" transform="scale(0.015625)"/>
       </defs>
       <use xlink:href="#DejaVuSans-30"/>
      </g>
     </g>
    </g>
    <g id="xtick_2">
     <g id="line2d_2"/>
     <g id="text_2">
      <!-- 10 -->
      <g transform="translate(100.688294 213.891763)scale(0.1 -0.1)">
       <defs>
        <path id="DejaVuSans-31" d="M 794 531 
L 1825 531 
L 1825 4091 
L 703 3866 
L 703 4441 
L 1819 4666 
L 2450 4666 
L 2450 531 
L 3481 531 
L 3481 0 
L 794 0 
L 794 531 
z
" transform="scale(0.015625)"/>
       </defs>
       <use xlink:href="#DejaVuSans-31"/>
       <use xlink:href="#DejaVuSans-30" x="63.623047"/>
      </g>
     </g>
    </g>
    <g id="xtick_3">
     <g id="line2d_3"/>
     <g id="text_3">
      <!-- 20 -->
      <g transform="translate(138.964327 213.891763)scale(0.1 -0.1)">
       <defs>
        <path id="DejaVuSans-32" d="M 1228 531 
L 3431 531 
L 3431 0 
L 469 0 
L 469 531 
Q 828 903 1448 1529 
Q 2069 2156 2228 2338 
Q 2531 2678 2651 2914 
Q 2772 3150 2772 3378 
Q 2772 3750 2511 3984 
Q 2250 4219 1831 4219 
Q 1534 4219 1204 4116 
Q 875 4013 500 3803 
L 500 4441 
Q 881 4594 1212 4672 
Q 1544 4750 1819 4750 
Q 2544 4750 2975 4387 
Q 3406 4025 3406 3419 
Q 3406 3131 3298 2873 
Q 3191 2616 2906 2266 
Q 2828 2175 2409 1742 
Q 1991 1309 1228 531 
z
" transform="scale(0.015625)"/>
       </defs>
       <use xlink:href="#DejaVuSans-32"/>
       <use xlink:href="#DejaVuSans-30" x="63.623047"/>
      </g>
     </g>
    </g>
    <g id="xtick_4">
     <g id="line2d_4"/>
     <g id="text_4">
      <!-- 30 -->
      <g transform="translate(177.240361 213.891763)scale(0.1 -0.1)">
       <defs>
        <path id="DejaVuSans-33" d="M 2597 2516 
Q 3050 2419 3304 2112 
Q 3559 1806 3559 1356 
Q 3559 666 3084 287 
Q 2609 -91 1734 -91 
Q 1441 -91 1130 -33 
Q 819 25 488 141 
L 488 750 
Q 750 597 1062 519 
Q 1375 441 1716 441 
Q 2309 441 2620 675 
Q 2931 909 2931 1356 
Q 2931 1769 2642 2001 
Q 2353 2234 1838 2234 
L 1294 2234 
L 1294 2753 
L 1863 2753 
Q 2328 2753 2575 2939 
Q 2822 3125 2822 3475 
Q 2822 3834 2567 4026 
Q 2313 4219 1838 4219 
Q 1578 4219 1281 4162 
Q 984 4106 628 3988 
L 628 4550 
Q 988 4650 1302 4700 
Q 1616 4750 1894 4750 
Q 2613 4750 3031 4423 
Q 3450 4097 3450 3541 
Q 3450 3153 3228 2886 
Q 3006 2619 2597 2516 
z
" transform="scale(0.015625)"/>
       </defs>
       <use xlink:href="#DejaVuSans-33"/>
       <use xlink:href="#DejaVuSans-30" x="63.623047"/>
      </g>
     </g>
    </g>
    <g id="xtick_5">
     <g id="line2d_5"/>
     <g id="text_5">
      <!-- 40 -->
      <g transform="translate(215.516394 213.891763)scale(0.1 -0.1)">
       <defs>
        <path id="DejaVuSans-34" d="M 2419 4116 
L 825 1625 
L 2419 1625 
L 2419 4116 
z
M 2253 4666 
L 3047 4666 
L 3047 1625 
L 3713 1625 
L 3713 1100 
L 3047 1100 
L 3047 0 
L 2419 0 
L 2419 1100 
L 313 1100 
L 313 1709 
L 2253 4666 
z
" transform="scale(0.015625)"/>
       </defs>
       <use xlink:href="#DejaVuSans-34"/>
       <use xlink:href="#DejaVuSans-30" x="63.623047"/>
      </g>
     </g>
    </g>
    <g id="xtick_6">
     <g id="line2d_6"/>
     <g id="text_6">
      <!-- 50 -->
      <g transform="translate(253.792427 213.891763)scale(0.1 -0.1)">
       <defs>
        <path id="DejaVuSans-35" d="M 691 4666 
L 3169 4666 
L 3169 4134 
L 1269 4134 
L 1269 2991 
Q 1406 3038 1543 3061 
Q 1681 3084 1819 3084 
Q 2600 3084 3056 2656 
Q 3513 2228 3513 1497 
Q 3513 744 3044 326 
Q 2575 -91 1722 -91 
Q 1428 -91 1123 -41 
Q 819 9 494 109 
L 494 744 
Q 775 591 1075 516 
Q 1375 441 1709 441 
Q 2250 441 2565 725 
Q 2881 1009 2881 1497 
Q 2881 1984 2565 2268 
Q 2250 2553 1709 2553 
Q 1456 2553 1204 2497 
Q 953 2441 691 2322 
L 691 4666 
z
" transform="scale(0.015625)"/>
       </defs>
       <use xlink:href="#DejaVuSans-35"/>
       <use xlink:href="#DejaVuSans-30" x="63.623047"/>
      </g>
     </g>
    </g>
    <g id="xtick_7">
     <g id="line2d_7"/>
     <g id="text_7">
      <!-- 60 -->
      <g transform="translate(292.06846 213.891763)scale(0.1 -0.1)">
       <defs>
        <path id="DejaVuSans-36" d="M 2113 2584 
Q 1688 2584 1439 2293 
Q 1191 2003 1191 1497 
Q 1191 994 1439 701 
Q 1688 409 2113 409 
Q 2538 409 2786 701 
Q 3034 994 3034 1497 
Q 3034 2003 2786 2293 
Q 2538 2584 2113 2584 
z
M 3366 4563 
L 3366 3988 
Q 3128 4100 2886 4159 
Q 2644 4219 2406 4219 
Q 1781 4219 1451 3797 
Q 1122 3375 1075 2522 
Q 1259 2794 1537 2939 
Q 1816 3084 2150 3084 
Q 2853 3084 3261 2657 
Q 3669 2231 3669 1497 
Q 3669 778 3244 343 
Q 2819 -91 2113 -91 
Q 1303 -91 875 529 
Q 447 1150 447 2328 
Q 447 3434 972 4092 
Q 1497 4750 2381 4750 
Q 2619 4750 2861 4703 
Q 3103 4656 3366 4563 
z
" transform="scale(0.015625)"/>
       </defs>
       <use xlink:href="#DejaVuSans-36"/>
       <use xlink:href="#DejaVuSans-30" x="63.623047"/>
      </g>
     </g>
    </g>
    <g id="xtick_8">
     <g id="line2d_8"/>
     <g id="text_8">
      <!-- 70 -->
      <g transform="translate(330.344493 213.891763)scale(0.1 -0.1)">
       <defs>
        <path id="DejaVuSans-37" d="M 525 4666 
L 3525 4666 
L 3525 4397 
L 1831 0 
L 1172 0 
L 2766 4134 
L 525 4134 
L 525 4666 
z
" transform="scale(0.015625)"/>
       </defs>
       <use xlink:href="#DejaVuSans-37"/>
       <use xlink:href="#DejaVuSans-30" x="63.623047"/>
      </g>
     </g>
    </g>
    <g id="xtick_9">
     <g id="line2d_9"/>
     <g id="text_9">
      <!-- 80 -->
      <g transform="translate(368.620526 213.891763)scale(0.1 -0.1)">
       <defs>
        <path id="DejaVuSans-38" d="M 2034 2216 
Q 1584 2216 1326 1975 
Q 1069 1734 1069 1313 
Q 1069 891 1326 650 
Q 1584 409 2034 409 
Q 2484 409 2743 651 
Q 3003 894 3003 1313 
Q 3003 1734 2745 1975 
Q 2488 2216 2034 2216 
z
M 1403 2484 
Q 997 2584 770 2862 
Q 544 3141 544 3541 
Q 544 4100 942 4425 
Q 1341 4750 2034 4750 
Q 2731 4750 3128 4425 
Q 3525 4100 3525 3541 
Q 3525 3141 3298 2862 
Q 3072 2584 2669 2484 
Q 3125 2378 3379 2068 
Q 3634 1759 3634 1313 
Q 3634 634 3220 271 
Q 2806 -91 2034 -91 
Q 1263 -91 848 271 
Q 434 634 434 1313 
Q 434 1759 690 2068 
Q 947 2378 1403 2484 
z
M 1172 3481 
Q 1172 3119 1398 2916 
Q 1625 2713 2034 2713 
Q 2441 2713 2670 2916 
Q 2900 3119 2900 3481 
Q 2900 3844 2670 4047 
Q 2441 4250 2034 4250 
Q 1625 4250 1398 4047 
Q 1172 3844 1172 3481 
z
" transform="scale(0.015625)"/>
       </defs>
       <use xlink:href="#DejaVuSans-38"/>
       <use xlink:href="#DejaVuSans-30" x="63.623047"/>
      </g>
     </g>
    </g>
    <g id="xtick_10">
     <g id="line2d_10"/>
     <g id="text_10">
      <!-- 90 -->
      <g transform="translate(406.896559 213.891763)scale(0.1 -0.1)">
       <defs>
        <path id="DejaVuSans-39" d="M 703 97 
L 703 672 
Q 941 559 1184 500 
Q 1428 441 1663 441 
Q 2288 441 2617 861 
Q 2947 1281 2994 2138 
Q 2813 1869 2534 1725 
Q 2256 1581 1919 1581 
Q 1219 1581 811 2004 
Q 403 2428 403 3163 
Q 403 3881 828 4315 
Q 1253 4750 1959 4750 
Q 2769 4750 3195 4129 
Q 3622 3509 3622 2328 
Q 3622 1225 3098 567 
Q 2575 -91 1691 -91 
Q 1453 -91 1209 -44 
Q 966 3 703 97 
z
M 1959 2075 
Q 2384 2075 2632 2365 
Q 2881 2656 2881 3163 
Q 2881 3666 2632 3958 
Q 2384 4250 1959 4250 
Q 1534 4250 1286 3958 
Q 1038 3666 1038 3163 
Q 1038 2656 1286 2365 
Q 1534 2075 1959 2075 
z
" transform="scale(0.015625)"/>
       </defs>
       <use xlink:href="#DejaVuSans-39"/>
       <use xlink:href="#DejaVuSans-30" x="63.623047"/>
      </g>
     </g>
    </g>
    <g id="xtick_11">
     <g id="line2d_11"/>
     <g id="text_11">
      <!-- 100 -->
      <g transform="translate(441.991342 213.891763)scale(0.1 -0.1)">
       <use xlink:href="#DejaVuSans-31"/>
       <use xlink:href="#DejaVuSans-30" x="63.623047"/>
       <use xlink:href="#DejaVuSans-30" x="127.246094"/>
      </g>
     </g>
    </g>
    <g id="text_12">
     <!-- Testnumber (n) -->
     <g transform="translate(219.991125 227.569888)scale(0.1 -0.1)">
      <defs>
       <path id="DejaVuSans-Oblique-54" d="M 378 4666 
L 4325 4666 
L 4225 4134 
L 2559 4134 
L 1759 0 
L 1125 0 
L 1925 4134 
L 275 4134 
L 378 4666 
z
" transform="scale(0.015625)"/>
       <path id="DejaVuSans-Oblique-65" d="M 3078 2063 
Q 3088 2113 3092 2166 
Q 3097 2219 3097 2272 
Q 3097 2653 2873 2875 
Q 2650 3097 2266 3097 
Q 1838 3097 1509 2826 
Q 1181 2556 1013 2059 
L 3078 2063 
z
M 3578 1613 
L 903 1613 
Q 884 1494 878 1425 
Q 872 1356 872 1306 
Q 872 872 1139 634 
Q 1406 397 1894 397 
Q 2269 397 2603 481 
Q 2938 566 3225 728 
L 3116 159 
Q 2806 34 2476 -28 
Q 2147 -91 1806 -91 
Q 1078 -91 686 257 
Q 294 606 294 1247 
Q 294 1794 489 2264 
Q 684 2734 1063 3103 
Q 1306 3334 1642 3459 
Q 1978 3584 2356 3584 
Q 2950 3584 3301 3228 
Q 3653 2872 3653 2272 
Q 3653 2128 3634 1964 
Q 3616 1800 3578 1613 
z
" transform="scale(0.015625)"/>
       <path id="DejaVuSans-Oblique-73" d="M 3200 3397 
L 3091 2853 
Q 2863 2978 2609 3040 
Q 2356 3103 2088 3103 
Q 1634 3103 1373 2948 
Q 1113 2794 1113 2528 
Q 1113 2219 1719 2053 
Q 1766 2041 1788 2034 
L 1972 1978 
Q 2547 1819 2739 1644 
Q 2931 1469 2931 1166 
Q 2931 609 2489 259 
Q 2047 -91 1331 -91 
Q 1053 -91 747 -37 
Q 441 16 72 128 
L 184 722 
Q 500 559 806 475 
Q 1113 391 1394 391 
Q 1816 391 2080 572 
Q 2344 753 2344 1031 
Q 2344 1331 1650 1516 
L 1591 1531 
L 1394 1581 
Q 956 1697 753 1886 
Q 550 2075 550 2369 
Q 550 2928 970 3256 
Q 1391 3584 2113 3584 
Q 2397 3584 2667 3537 
Q 2938 3491 3200 3397 
z
" transform="scale(0.015625)"/>
       <path id="DejaVuSans-Oblique-74" d="M 2706 3500 
L 2619 3053 
L 1472 3053 
L 1100 1153 
Q 1081 1047 1072 975 
Q 1063 903 1063 863 
Q 1063 663 1183 572 
Q 1303 481 1569 481 
L 2150 481 
L 2053 0 
L 1503 0 
Q 991 0 739 200 
Q 488 400 488 806 
Q 488 878 497 964 
Q 506 1050 525 1153 
L 897 3053 
L 409 3053 
L 500 3500 
L 978 3500 
L 1172 4494 
L 1747 4494 
L 1556 3500 
L 2706 3500 
z
" transform="scale(0.015625)"/>
       <path id="DejaVuSans-Oblique-6e" d="M 3566 2113 
L 3156 0 
L 2578 0 
L 2988 2091 
Q 3016 2238 3031 2350 
Q 3047 2463 3047 2528 
Q 3047 2791 2881 2937 
Q 2716 3084 2419 3084 
Q 1956 3084 1622 2776 
Q 1288 2469 1184 1941 
L 800 0 
L 225 0 
L 903 3500 
L 1478 3500 
L 1363 2950 
Q 1603 3253 1940 3418 
Q 2278 3584 2650 3584 
Q 3113 3584 3367 3334 
Q 3622 3084 3622 2631 
Q 3622 2519 3608 2391 
Q 3594 2263 3566 2113 
z
" transform="scale(0.015625)"/>
       <path id="DejaVuSans-Oblique-75" d="M 428 1388 
L 838 3500 
L 1416 3500 
L 1006 1409 
Q 975 1256 961 1147 
Q 947 1038 947 966 
Q 947 700 1109 554 
Q 1272 409 1569 409 
Q 2031 409 2368 721 
Q 2706 1034 2809 1563 
L 3194 3500 
L 3769 3500 
L 3091 0 
L 2516 0 
L 2631 550 
Q 2388 244 2052 76 
Q 1716 -91 1338 -91 
Q 878 -91 622 161 
Q 366 413 366 863 
Q 366 956 381 1097 
Q 397 1238 428 1388 
z
" transform="scale(0.015625)"/>
       <path id="DejaVuSans-Oblique-6d" d="M 5747 2113 
L 5338 0 
L 4763 0 
L 5166 2094 
Q 5191 2228 5203 2325 
Q 5216 2422 5216 2491 
Q 5216 2772 5059 2928 
Q 4903 3084 4622 3084 
Q 4203 3084 3875 2770 
Q 3547 2456 3450 1953 
L 3066 0 
L 2491 0 
L 2900 2094 
Q 2925 2209 2937 2307 
Q 2950 2406 2950 2484 
Q 2950 2769 2794 2926 
Q 2638 3084 2363 3084 
Q 1938 3084 1609 2770 
Q 1281 2456 1184 1953 
L 800 0 
L 225 0 
L 909 3500 
L 1484 3500 
L 1375 2956 
Q 1609 3263 1923 3423 
Q 2238 3584 2597 3584 
Q 2978 3584 3223 3384 
Q 3469 3184 3519 2828 
Q 3781 3197 4126 3390 
Q 4472 3584 4856 3584 
Q 5306 3584 5551 3325 
Q 5797 3066 5797 2591 
Q 5797 2488 5784 2364 
Q 5772 2241 5747 2113 
z
" transform="scale(0.015625)"/>
       <path id="DejaVuSans-Oblique-62" d="M 3169 2138 
Q 3169 2591 2961 2847 
Q 2753 3103 2388 3103 
Q 2122 3103 1889 2973 
Q 1656 2844 1484 2597 
Q 1303 2338 1198 1995 
Q 1094 1653 1094 1313 
Q 1094 881 1298 636 
Q 1503 391 1863 391 
Q 2134 391 2365 517 
Q 2597 644 2772 891 
Q 2950 1147 3059 1487 
Q 3169 1828 3169 2138 
z
M 1381 2969 
Q 1594 3256 1914 3420 
Q 2234 3584 2584 3584 
Q 3122 3584 3439 3221 
Q 3756 2859 3756 2241 
Q 3756 1734 3570 1259 
Q 3384 784 3041 416 
Q 2816 172 2522 40 
Q 2228 -91 1906 -91 
Q 1566 -91 1316 65 
Q 1066 222 909 531 
L 806 0 
L 231 0 
L 1178 4863 
L 1753 4863 
L 1381 2969 
z
" transform="scale(0.015625)"/>
       <path id="DejaVuSans-Oblique-72" d="M 2853 2969 
Q 2766 3016 2653 3041 
Q 2541 3066 2413 3066 
Q 1953 3066 1609 2717 
Q 1266 2369 1153 1784 
L 800 0 
L 225 0 
L 909 3500 
L 1484 3500 
L 1375 2956 
Q 1603 3259 1920 3421 
Q 2238 3584 2597 3584 
Q 2691 3584 2781 3573 
Q 2872 3563 2963 3538 
L 2853 2969 
z
" transform="scale(0.015625)"/>
       <path id="DejaVuSans-Oblique-20" transform="scale(0.015625)"/>
       <path id="DejaVuSans-Oblique-28" d="M 2731 4856 
Q 1903 3822 1495 2892 
Q 1088 1963 1088 1100 
Q 1088 606 1206 120 
Q 1325 -366 1563 -844 
L 1063 -844 
Q 775 -306 634 201 
Q 494 709 494 1197 
Q 494 2125 923 3036 
Q 1353 3947 2222 4856 
L 2731 4856 
z
" transform="scale(0.015625)"/>
       <path id="DejaVuSans-Oblique-29" d="M -397 -844 
Q 434 191 840 1120 
Q 1247 2050 1247 2913 
Q 1247 3406 1130 3892 
Q 1013 4378 775 4856 
L 1275 4856 
Q 1563 4316 1703 3812 
Q 1844 3309 1844 2822 
Q 1844 1891 1411 973 
Q 978 56 116 -844 
L -397 -844 
z
" transform="scale(0.015625)"/>
      </defs>
      <use xlink:href="#DejaVuSans-Oblique-54"/>
      <use xlink:href="#DejaVuSans-Oblique-65" x="48.708984"/>
      <use xlink:href="#DejaVuSans-Oblique-73" x="110.232422"/>
      <use xlink:href="#DejaVuSans-Oblique-74" x="162.332031"/>
      <use xlink:href="#DejaVuSans-Oblique-6e" x="201.541016"/>
      <use xlink:href="#DejaVuSans-Oblique-75" x="264.919922"/>
      <use xlink:href="#DejaVuSans-Oblique-6d" x="328.298828"/>
      <use xlink:href="#DejaVuSans-Oblique-62" x="425.710938"/>
      <use xlink:href="#DejaVuSans-Oblique-65" x="489.1875"/>
      <use xlink:href="#DejaVuSans-Oblique-72" x="550.710938"/>
      <use xlink:href="#DejaVuSans-Oblique-20" x="591.824219"/>
      <use xlink:href="#DejaVuSans-Oblique-28" x="623.611328"/>
      <use xlink:href="#DejaVuSans-Oblique-6e" x="662.625"/>
      <use xlink:href="#DejaVuSans-Oblique-29" x="726.003906"/>
     </g>
    </g>
   </g>
   <g id="matplotlib.axis_2">
    <g id="ytick_1">
     <g id="line2d_12"/>
     <g id="text_13">
      <!-- 0 -->
      <g transform="translate(39.965625 198.650293)scale(0.1 -0.1)">
       <use xlink:href="#DejaVuSans-30"/>
      </g>
     </g>
    </g>
    <g id="ytick_2">
     <g id="line2d_13"/>
     <g id="text_14">
      <!-- 1000 -->
      <g transform="translate(20.878125 165.811991)scale(0.1 -0.1)">
       <use xlink:href="#DejaVuSans-31"/>
       <use xlink:href="#DejaVuSans-30" x="63.623047"/>
       <use xlink:href="#DejaVuSans-30" x="127.246094"/>
       <use xlink:href="#DejaVuSans-30" x="190.869141"/>
      </g>
     </g>
    </g>
    <g id="ytick_3">
     <g id="line2d_14"/>
     <g id="text_15">
      <!-- 2000 -->
      <g transform="translate(20.878125 132.97369)scale(0.1 -0.1)">
       <use xlink:href="#DejaVuSans-32"/>
       <use xlink:href="#DejaVuSans-30" x="63.623047"/>
       <use xlink:href="#DejaVuSans-30" x="127.246094"/>
       <use xlink:href="#DejaVuSans-30" x="190.869141"/>
      </g>
     </g>
    </g>
    <g id="ytick_4">
     <g id="line2d_15"/>
     <g id="text_16">
      <!-- 3000 -->
      <g transform="translate(20.878125 100.135388)scale(0.1 -0.1)">
       <use xlink:href="#DejaVuSans-33"/>
       <use xlink:href="#DejaVuSans-30" x="63.623047"/>
       <use xlink:href="#DejaVuSans-30" x="127.246094"/>
       <use xlink:href="#DejaVuSans-30" x="190.869141"/>
      </g>
     </g>
    </g>
    <g id="ytick_5">
     <g id="line2d_16"/>
     <g id="text_17">
      <!-- 4000 -->
      <g transform="translate(20.878125 67.297087)scale(0.1 -0.1)">
       <use xlink:href="#DejaVuSans-34"/>
       <use xlink:href="#DejaVuSans-30" x="63.623047"/>
       <use xlink:href="#DejaVuSans-30" x="127.246094"/>
       <use xlink:href="#DejaVuSans-30" x="190.869141"/>
      </g>
     </g>
    </g>
    <g id="ytick_6">
     <g id="line2d_17"/>
     <g id="text_18">
      <!-- 5000 -->
      <g transform="translate(20.878125 34.458785)scale(0.1 -0.1)">
       <use xlink:href="#DejaVuSans-35"/>
       <use xlink:href="#DejaVuSans-30" x="63.623047"/>
       <use xlink:href="#DejaVuSans-30" x="127.246094"/>
       <use xlink:href="#DejaVuSans-30" x="190.869141"/>
      </g>
     </g>
    </g>
    <g id="text_19">
     <!-- Memory consumption (MB) -->
     <g transform="translate(14.798438 180.087756)rotate(-90)scale(0.1 -0.1)">
      <defs>
       <path id="DejaVuSans-Oblique-4d" d="M 1081 4666 
L 2028 4666 
L 2572 1522 
L 4378 4666 
L 5350 4666 
L 4441 0 
L 3828 0 
L 4622 4091 
L 2791 897 
L 2175 897 
L 1581 4103 
L 788 0 
L 172 0 
L 1081 4666 
z
" transform="scale(0.015625)"/>
       <path id="DejaVuSans-Oblique-6f" d="M 1625 -91 
Q 1009 -91 651 289 
Q 294 669 294 1325 
Q 294 1706 417 2101 
Q 541 2497 738 2766 
Q 1047 3184 1428 3384 
Q 1809 3584 2291 3584 
Q 2888 3584 3255 3212 
Q 3622 2841 3622 2241 
Q 3622 1825 3500 1412 
Q 3378 1000 3181 728 
Q 2875 309 2494 109 
Q 2113 -91 1625 -91 
z
M 891 1344 
Q 891 869 1089 633 
Q 1288 397 1691 397 
Q 2269 397 2648 901 
Q 3028 1406 3028 2181 
Q 3028 2634 2825 2865 
Q 2622 3097 2228 3097 
Q 1903 3097 1650 2945 
Q 1397 2794 1197 2484 
Q 1050 2253 970 1956 
Q 891 1659 891 1344 
z
" transform="scale(0.015625)"/>
       <path id="DejaVuSans-Oblique-79" d="M 1588 -325 
Q 1188 -997 936 -1164 
Q 684 -1331 294 -1331 
L -159 -1331 
L -63 -850 
L 269 -850 
Q 509 -850 678 -719 
Q 847 -588 1056 -206 
L 1234 128 
L 459 3500 
L 1069 3500 
L 1650 819 
L 3256 3500 
L 3859 3500 
L 1588 -325 
z
" transform="scale(0.015625)"/>
       <path id="DejaVuSans-Oblique-63" d="M 3431 3366 
L 3316 2797 
Q 3109 2947 2876 3022 
Q 2644 3097 2394 3097 
Q 2119 3097 1870 3000 
Q 1622 2903 1453 2725 
Q 1184 2453 1037 2087 
Q 891 1722 891 1331 
Q 891 859 1127 628 
Q 1363 397 1844 397 
Q 2081 397 2348 469 
Q 2616 541 2906 684 
L 2797 116 
Q 2547 13 2283 -39 
Q 2019 -91 1741 -91 
Q 1044 -91 669 257 
Q 294 606 294 1253 
Q 294 1797 489 2255 
Q 684 2713 1069 3078 
Q 1331 3328 1684 3456 
Q 2038 3584 2456 3584 
Q 2700 3584 2940 3529 
Q 3181 3475 3431 3366 
z
" transform="scale(0.015625)"/>
       <path id="DejaVuSans-Oblique-70" d="M 3175 2156 
Q 3175 2616 2975 2859 
Q 2775 3103 2400 3103 
Q 2144 3103 1911 2972 
Q 1678 2841 1497 2591 
Q 1319 2344 1212 1994 
Q 1106 1644 1106 1300 
Q 1106 863 1306 627 
Q 1506 391 1875 391 
Q 2147 391 2380 519 
Q 2613 647 2778 891 
Q 2956 1147 3065 1494 
Q 3175 1841 3175 2156 
z
M 1394 2969 
Q 1625 3272 1939 3428 
Q 2253 3584 2638 3584 
Q 3175 3584 3472 3232 
Q 3769 2881 3769 2247 
Q 3769 1728 3584 1258 
Q 3400 788 3053 416 
Q 2822 169 2531 39 
Q 2241 -91 1919 -91 
Q 1547 -91 1294 64 
Q 1041 219 916 525 
L 556 -1331 
L -19 -1331 
L 922 3500 
L 1497 3500 
L 1394 2969 
z
" transform="scale(0.015625)"/>
       <path id="DejaVuSans-Oblique-69" d="M 1172 4863 
L 1747 4863 
L 1606 4134 
L 1031 4134 
L 1172 4863 
z
M 909 3500 
L 1484 3500 
L 800 0 
L 225 0 
L 909 3500 
z
" transform="scale(0.015625)"/>
       <path id="DejaVuSans-Oblique-42" d="M 1081 4666 
L 2694 4666 
Q 3350 4666 3675 4422 
Q 4000 4178 4000 3688 
Q 4000 3238 3720 2911 
Q 3441 2584 2988 2516 
Q 3375 2428 3569 2181 
Q 3763 1934 3763 1522 
Q 3763 819 3242 409 
Q 2722 0 1819 0 
L 172 0 
L 1081 4666 
z
M 1234 2228 
L 903 519 
L 1919 519 
Q 2491 519 2800 781 
Q 3109 1044 3109 1522 
Q 3109 1891 2904 2059 
Q 2700 2228 2247 2228 
L 1234 2228 
z
M 1606 4147 
L 1331 2741 
L 2272 2741 
Q 2775 2741 3058 2959 
Q 3341 3178 3341 3566 
Q 3341 3869 3150 4008 
Q 2959 4147 2541 4147 
L 1606 4147 
z
" transform="scale(0.015625)"/>
      </defs>
      <use xlink:href="#DejaVuSans-Oblique-4d"/>
      <use xlink:href="#DejaVuSans-Oblique-65" x="86.279297"/>
      <use xlink:href="#DejaVuSans-Oblique-6d" x="147.802734"/>
      <use xlink:href="#DejaVuSans-Oblique-6f" x="245.214844"/>
      <use xlink:href="#DejaVuSans-Oblique-72" x="306.396484"/>
      <use xlink:href="#DejaVuSans-Oblique-79" x="347.509766"/>
      <use xlink:href="#DejaVuSans-Oblique-20" x="406.689453"/>
      <use xlink:href="#DejaVuSans-Oblique-63" x="438.476562"/>
      <use xlink:href="#DejaVuSans-Oblique-6f" x="493.457031"/>
      <use xlink:href="#DejaVuSans-Oblique-6e" x="554.638672"/>
      <use xlink:href="#DejaVuSans-Oblique-73" x="618.017578"/>
      <use xlink:href="#DejaVuSans-Oblique-75" x="670.117188"/>
      <use xlink:href="#DejaVuSans-Oblique-6d" x="733.496094"/>
      <use xlink:href="#DejaVuSans-Oblique-70" x="830.908203"/>
      <use xlink:href="#DejaVuSans-Oblique-74" x="894.384766"/>
      <use xlink:href="#DejaVuSans-Oblique-69" x="933.59375"/>
      <use xlink:href="#DejaVuSans-Oblique-6f" x="961.376953"/>
      <use xlink:href="#DejaVuSans-Oblique-6e" x="1022.558594"/>
      <use xlink:href="#DejaVuSans-Oblique-20" x="1085.9375"/>
      <use xlink:href="#DejaVuSans-Oblique-28" x="1117.724609"/>
      <use xlink:href="#DejaVuSans-Oblique-4d" x="1156.738281"/>
      <use xlink:href="#DejaVuSans-Oblique-42" x="1243.017578"/>
      <use xlink:href="#DejaVuSans-Oblique-29" x="1311.621094"/>
     </g>
    </g>
   </g>
   <g id="line2d_18">
    <path d="M 68.774761 72.272365 
L 72.602365 50.291483 
L 76.429968 42.430815 
L 80.257571 65.492667 
L 84.085175 65.155433 
L 87.912778 70.174947 
L 91.740381 71.825841 
L 95.567985 70.831969 
L 99.395588 61.036535 
L 103.223191 61.650072 
L 107.050794 64.476988 
L 110.878398 60.949436 
L 114.706001 72.314696 
L 118.533604 69.008032 
L 122.361208 69.02009 
L 126.188811 69.026761 
L 130.016414 60.688141 
L 133.844018 30.521543 
L 137.671621 60.124117 
L 141.499224 67.41948 
L 145.326827 64.857194 
L 149.154431 68.365248 
L 152.982034 64.442226 
L 156.809637 64.572809 
L 160.637241 68.821649 
L 164.464844 73.958406 
L 168.292447 73.958535 
L 172.120051 70.586323 
L 175.947654 53.541064 
L 179.775257 58.370219 
L 183.602861 70.178667 
L 187.430464 61.024477 
L 191.258067 65.286786 
L 195.08567 72.323418 
L 198.913274 48.417648 
L 202.740877 68.370764 
L 206.56848 73.068052 
L 210.396084 70.388267 
L 214.223687 65.726255 
L 218.05129 59.91503 
L 221.878894 71.603028 
L 225.706497 73.515602 
L 229.5341 71.39471 
L 233.361704 72.029798 
L 237.189307 72.285064 
L 241.01691 66.876493 
L 244.844513 64.966356 
L 248.672117 65.910842 
L 252.49972 72.156148 
L 256.327323 60.691989 
L 260.154927 72.285577 
L 263.98253 64.869893 
L 267.810133 60.684678 
L 271.637737 47.992674 
L 275.46534 73.153227 
L 279.292943 59.879626 
L 283.120546 65.29987 
L 286.94815 72.109328 
L 290.775753 67.790963 
L 294.603356 73.181062 
L 298.43096 73.478659 
L 302.258563 73.313442 
L 306.086166 59.134094 
L 309.91377 55.89811 
L 313.741373 68.417713 
L 317.568976 59.592932 
L 321.39658 61.397884 
L 325.224183 70.186748 
L 329.051786 69.234694 
L 332.879389 71.986056 
L 336.706993 72.0348 
L 340.534596 65.16082 
L 344.362199 65.21585 
L 348.189803 65.067565 
L 352.017406 72.310847 
L 355.845009 68.494677 
L 359.672613 69.950723 
L 363.500216 71.660752 
L 367.327819 68.177583 
L 371.155423 70.708184 
L 374.983026 60.984968 
L 378.810629 70.991415 
L 382.638232 61.756284 
L 386.465836 47.789487 
L 390.293439 68.251597 
L 394.121042 55.310099 
L 397.948646 69.987666 
L 401.776249 73.203125 
L 405.603852 61.049491 
L 409.431456 72.338811 
L 413.259059 73.32178 
L 417.086662 64.329216 
L 420.914265 66.895734 
L 424.741869 71.287472 
L 428.569472 59.070855 
L 432.397075 46.226974 
L 436.224679 70.994878 
L 440.052282 68.792018 
L 443.879885 65.870179 
L 447.707489 73.507008 
" clip-path="url(#p2684673a32)" style="fill: none; stroke: #1f77b4; stroke-width: 1.5; stroke-linecap: square"/>
   </g>
   <g id="line2d_19">
    <path d="M 68.774761 133.485781 
L 72.602365 133.82712 
L 76.429968 134.081745 
L 80.257571 133.436523 
L 84.085175 133.818269 
L 87.912778 134.246449 
L 91.740381 133.266816 
L 95.567985 133.673703 
L 99.395588 133.987976 
L 103.223191 133.434728 
L 107.050794 133.942567 
L 110.878398 133.783763 
L 114.706001 134.050831 
L 118.533604 133.674216 
L 122.361208 132.801821 
L 126.188811 133.264379 
L 130.016414 133.580576 
L 133.844018 133.281824 
L 137.671621 133.773757 
L 141.499224 133.910626 
L 145.326827 132.384928 
L 149.154431 133.313123 
L 152.982034 133.923069 
L 156.809637 134.254531 
L 160.637241 133.092876 
L 164.464844 133.625985 
L 168.292447 133.250653 
L 172.120051 133.480522 
L 175.947654 133.947185 
L 179.775257 133.605205 
L 183.602861 132.457018 
L 187.430464 133.379698 
L 191.258067 133.895618 
L 195.08567 133.541965 
L 198.913274 134.161147 
L 202.740877 134.108682 
L 206.56848 132.597864 
L 210.396084 133.953598 
L 214.223687 133.722704 
L 218.05129 133.596354 
L 221.878894 133.363792 
L 225.706497 134.06571 
L 229.5341 133.788509 
L 233.361704 133.851107 
L 237.189307 133.526572 
L 241.01691 132.770778 
L 244.844513 133.275924 
L 248.672117 134.023636 
L 252.49972 133.937436 
L 256.327323 132.788608 
L 260.154927 133.053111 
L 263.98253 132.899694 
L 267.810133 133.111219 
L 271.637737 133.566209 
L 275.46534 132.95498 
L 279.292943 133.126484 
L 283.120546 133.973353 
L 286.94815 133.219868 
L 290.775753 133.459613 
L 294.603356 132.313607 
L 298.43096 132.968578 
L 302.258563 133.703463 
L 306.086166 133.774784 
L 309.91377 132.691248 
L 313.741373 133.945902 
L 317.568976 133.459998 
L 321.39658 133.463846 
L 325.224183 134.140494 
L 329.051786 133.766189 
L 332.879389 132.891485 
L 336.706993 133.408046 
L 340.534596 134.016196 
L 344.362199 133.258478 
L 348.189803 133.111732 
L 352.017406 133.355967 
L 355.845009 132.390316 
L 359.672613 133.853801 
L 363.500216 134.191163 
L 367.327819 133.979766 
L 371.155423 133.982845 
L 374.983026 133.602896 
L 378.810629 133.51259 
L 382.638232 133.341087 
L 386.465836 133.03528 
L 390.293439 133.025532 
L 394.121042 133.550816 
L 397.948646 132.926119 
L 401.776249 132.72755 
L 405.603852 133.594686 
L 409.431456 134.250426 
L 413.259059 132.958444 
L 417.086662 133.174587 
L 420.914265 133.031176 
L 424.741869 133.402531 
L 428.569472 134.07841 
L 432.397075 132.616207 
L 436.224679 133.231669 
L 440.052282 132.651098 
L 443.879885 134.194755 
L 447.707489 133.839947 
" clip-path="url(#p2684673a32)" style="fill: none; stroke: #ff7f0e; stroke-width: 1.5; stroke-linecap: square"/>
   </g>
   <g id="line2d_20">
    <path d="M 68.774761 194.587983 
L 72.602365 194.569896 
L 76.429968 194.504476 
L 80.257571 194.544882 
L 84.085175 194.566048 
L 87.912778 194.458297 
L 91.740381 194.558351 
L 95.567985 194.589907 
L 99.395588 194.5622 
L 103.223191 194.554503 
L 107.050794 194.512172 
L 110.878398 194.569896 
L 114.706001 194.531414 
L 118.533604 194.527565 
L 122.361208 194.587983 
L 126.188811 194.498704 
L 130.016414 194.546807 
L 133.844018 194.556427 
L 137.671621 194.483311 
L 141.499224 194.491007 
L 145.326827 194.516021 
L 149.154431 194.567972 
L 152.982034 194.496779 
L 156.809637 194.519869 
L 160.637241 194.586059 
L 164.464844 194.552579 
L 168.292447 194.58221 
L 172.120051 194.5064 
L 175.947654 194.517945 
L 179.775257 194.589907 
L 183.602861 194.477538 
L 187.430464 194.514097 
L 191.258067 194.47369 
L 195.08567 194.550655 
L 198.913274 194.489083 
L 202.740877 194.460221 
L 206.56848 194.481386 
L 210.396084 194.481386 
L 214.223687 194.552579 
L 218.05129 194.489083 
L 221.878894 194.500628 
L 225.706497 194.554503 
L 229.5341 194.521793 
L 233.361704 194.57182 
L 237.189307 194.479462 
L 241.01691 194.496779 
L 244.844513 194.481386 
L 248.672117 194.569896 
L 252.49972 194.537186 
L 256.327323 194.548731 
L 260.154927 194.502552 
L 263.98253 194.483311 
L 267.810133 194.53911 
L 271.637737 194.564124 
L 275.46534 194.465994 
L 279.292943 194.552579 
L 283.120546 194.550655 
L 286.94815 194.510248 
L 290.775753 194.481386 
L 294.603356 194.586059 
L 298.43096 194.496779 
L 302.258563 194.521793 
L 306.086166 194.556427 
L 309.91377 194.560275 
L 313.741373 194.589907 
L 317.568976 194.496779 
L 321.39658 194.481386 
L 325.224183 194.531414 
L 329.051786 194.546807 
L 332.879389 194.548731 
L 336.706993 194.5622 
L 340.534596 194.523717 
L 344.362199 194.566048 
L 348.189803 194.533338 
L 352.017406 194.477538 
L 355.845009 194.492931 
L 359.672613 194.567972 
L 363.500216 194.487159 
L 367.327819 194.558351 
L 371.155423 194.586059 
L 374.983026 194.500628 
L 378.810629 194.465994 
L 382.638232 194.492931 
L 386.465836 194.537186 
L 390.293439 194.475614 
L 394.121042 194.491007 
L 397.948646 194.460221 
L 401.776249 194.514097 
L 405.603852 194.586059 
L 409.431456 194.517945 
L 413.259059 194.587983 
L 417.086662 194.514097 
L 420.914265 194.498704 
L 424.741869 194.544882 
L 428.569472 194.5622 
L 432.397075 194.523717 
L 436.224679 194.502552 
L 440.052282 194.542958 
L 443.879885 194.469842 
L 447.707489 194.47369 
" clip-path="url(#p2684673a32)" style="fill: none; stroke: #2ca02c; stroke-width: 1.5; stroke-linecap: square"/>
   </g>
   <g id="line2d_21">
    <path d="M 68.774761 62.818911 
L 72.602365 62.952573 
L 76.429968 62.831866 
L 80.257571 63.073921 
L 84.085175 62.849953 
L 87.912778 62.788125 
L 91.740381 62.797232 
L 95.567985 62.590838 
L 99.395588 62.817756 
L 103.223191 62.904855 
L 107.050794 62.827762 
L 110.878398 63.188341 
L 114.706001 62.92307 
L 118.533604 62.8665 
L 122.361208 62.812625 
L 126.188811 62.740407 
L 130.016414 62.840204 
L 133.844018 62.851108 
L 137.671621 62.770295 
L 141.499224 62.904983 
L 145.326827 62.787227 
L 149.154431 62.826222 
L 152.982034 62.816986 
L 156.809637 62.889462 
L 160.637241 62.866629 
L 164.464844 62.875865 
L 168.292447 62.803518 
L 172.120051 62.627525 
L 175.947654 62.850338 
L 179.775257 62.54761 
L 183.602861 62.789792 
L 187.430464 62.847901 
L 191.258067 62.813395 
L 195.08567 62.845335 
L 198.913274 62.857778 
L 202.740877 62.836356 
L 206.56848 62.789536 
L 210.396084 62.801209 
L 214.223687 62.831738 
L 218.05129 62.81301 
L 221.878894 62.766061 
L 225.706497 62.881509 
L 229.5341 62.81378 
L 233.361704 62.846874 
L 237.189307 62.792999 
L 241.01691 62.950007 
L 244.844513 62.821476 
L 248.672117 62.745922 
L 252.49972 62.83751 
L 256.327323 62.887538 
L 260.154927 62.83379 
L 263.98253 62.85239 
L 267.810133 62.845207 
L 271.637737 62.834047 
L 275.46534 62.698717 
L 279.292943 62.80929 
L 283.120546 62.85021 
L 286.94815 62.820963 
L 290.775753 62.717189 
L 294.603356 62.898954 
L 298.43096 62.863165 
L 302.258563 62.815191 
L 306.086166 62.452173 
L 309.91377 63.201554 
L 313.741373 62.798002 
L 317.568976 62.797489 
L 321.39658 62.837126 
L 325.224183 62.768499 
L 329.051786 62.857778 
L 332.879389 62.779402 
L 336.706993 62.836099 
L 340.534596 62.845848 
L 344.362199 62.876506 
L 348.189803 62.823785 
L 352.017406 62.847003 
L 355.845009 62.906907 
L 359.672613 62.79736 
L 363.500216 62.918323 
L 367.327819 62.789536 
L 371.155423 62.753619 
L 374.983026 62.856367 
L 378.810629 62.888435 
L 382.638232 62.885357 
L 386.465836 62.901519 
L 390.293439 62.783379 
L 394.121042 62.75875 
L 397.948646 62.811984 
L 401.776249 62.880867 
L 405.603852 62.672036 
L 409.431456 62.984513 
L 413.259059 62.812625 
L 417.086662 62.733865 
L 420.914265 62.826735 
L 424.741869 62.878815 
L 428.569472 62.905368 
L 432.397075 62.7 
L 436.224679 62.859317 
L 440.052282 62.862396 
L 443.879885 62.911781 
L 447.707489 62.720011 
" clip-path="url(#p2684673a32)" style="fill: none; stroke: #d62728; stroke-width: 1.5; stroke-linecap: square"/>
   </g>
   <g id="patch_3">
    <path d="M 49.828125 202.793325 
L 49.828125 22.318125 
" style="fill: none; stroke: #000000; stroke-width: 0.8; stroke-linejoin: miter; stroke-linecap: square"/>
   </g>
   <g id="patch_4">
    <path d="M 466.654125 202.793325 
L 466.654125 22.318125 
" style="fill: none; stroke: #000000; stroke-width: 0.8; stroke-linejoin: miter; stroke-linecap: square"/>
   </g>
   <g id="patch_5">
    <path d="M 49.828125 202.793325 
L 466.654125 202.793325 
" style="fill: none; stroke: #000000; stroke-width: 0.8; stroke-linejoin: miter; stroke-linecap: square"/>
   </g>
   <g id="patch_6">
    <path d="M 49.828125 22.318125 
L 466.654125 22.318125 
" style="fill: none; stroke: #000000; stroke-width: 0.8; stroke-linejoin: miter; stroke-linecap: square"/>
   </g>
   <g id="text_20">
    <!-- Memory consumtion for fileformats [all tests] -->
    <g transform="translate(103.639875 16.318125)scale(0.12 -0.12)">
     <defs>
      <path id="DejaVuSans-Bold-4d" d="M 588 4666 
L 2119 4666 
L 3181 2169 
L 4250 4666 
L 5778 4666 
L 5778 0 
L 4641 0 
L 4641 3413 
L 3566 897 
L 2803 897 
L 1728 3413 
L 1728 0 
L 588 0 
L 588 4666 
z
" transform="scale(0.015625)"/>
      <path id="DejaVuSans-Bold-65" d="M 4031 1759 
L 4031 1441 
L 1416 1441 
Q 1456 1047 1700 850 
Q 1944 653 2381 653 
Q 2734 653 3104 758 
Q 3475 863 3866 1075 
L 3866 213 
Q 3469 63 3072 -14 
Q 2675 -91 2278 -91 
Q 1328 -91 801 392 
Q 275 875 275 1747 
Q 275 2603 792 3093 
Q 1309 3584 2216 3584 
Q 3041 3584 3536 3087 
Q 4031 2591 4031 1759 
z
M 2881 2131 
Q 2881 2450 2695 2645 
Q 2509 2841 2209 2841 
Q 1884 2841 1681 2658 
Q 1478 2475 1428 2131 
L 2881 2131 
z
" transform="scale(0.015625)"/>
      <path id="DejaVuSans-Bold-6d" d="M 3781 2919 
Q 3994 3244 4286 3414 
Q 4578 3584 4928 3584 
Q 5531 3584 5847 3212 
Q 6163 2841 6163 2131 
L 6163 0 
L 5038 0 
L 5038 1825 
Q 5041 1866 5042 1909 
Q 5044 1953 5044 2034 
Q 5044 2406 4934 2573 
Q 4825 2741 4581 2741 
Q 4263 2741 4089 2478 
Q 3916 2216 3909 1719 
L 3909 0 
L 2784 0 
L 2784 1825 
Q 2784 2406 2684 2573 
Q 2584 2741 2328 2741 
Q 2006 2741 1831 2477 
Q 1656 2213 1656 1722 
L 1656 0 
L 531 0 
L 531 3500 
L 1656 3500 
L 1656 2988 
Q 1863 3284 2130 3434 
Q 2397 3584 2719 3584 
Q 3081 3584 3359 3409 
Q 3638 3234 3781 2919 
z
" transform="scale(0.015625)"/>
      <path id="DejaVuSans-Bold-6f" d="M 2203 2784 
Q 1831 2784 1636 2517 
Q 1441 2250 1441 1747 
Q 1441 1244 1636 976 
Q 1831 709 2203 709 
Q 2569 709 2762 976 
Q 2956 1244 2956 1747 
Q 2956 2250 2762 2517 
Q 2569 2784 2203 2784 
z
M 2203 3584 
Q 3106 3584 3614 3096 
Q 4122 2609 4122 1747 
Q 4122 884 3614 396 
Q 3106 -91 2203 -91 
Q 1297 -91 786 396 
Q 275 884 275 1747 
Q 275 2609 786 3096 
Q 1297 3584 2203 3584 
z
" transform="scale(0.015625)"/>
      <path id="DejaVuSans-Bold-72" d="M 3138 2547 
Q 2991 2616 2845 2648 
Q 2700 2681 2553 2681 
Q 2122 2681 1889 2404 
Q 1656 2128 1656 1613 
L 1656 0 
L 538 0 
L 538 3500 
L 1656 3500 
L 1656 2925 
Q 1872 3269 2151 3426 
Q 2431 3584 2822 3584 
Q 2878 3584 2943 3579 
Q 3009 3575 3134 3559 
L 3138 2547 
z
" transform="scale(0.015625)"/>
      <path id="DejaVuSans-Bold-79" d="M 78 3500 
L 1197 3500 
L 2138 1125 
L 2938 3500 
L 4056 3500 
L 2584 -331 
Q 2363 -916 2067 -1148 
Q 1772 -1381 1288 -1381 
L 641 -1381 
L 641 -647 
L 991 -647 
Q 1275 -647 1404 -556 
Q 1534 -466 1606 -231 
L 1638 -134 
L 78 3500 
z
" transform="scale(0.015625)"/>
      <path id="DejaVuSans-Bold-20" transform="scale(0.015625)"/>
      <path id="DejaVuSans-Bold-63" d="M 3366 3391 
L 3366 2478 
Q 3138 2634 2908 2709 
Q 2678 2784 2431 2784 
Q 1963 2784 1702 2511 
Q 1441 2238 1441 1747 
Q 1441 1256 1702 982 
Q 1963 709 2431 709 
Q 2694 709 2930 787 
Q 3166 866 3366 1019 
L 3366 103 
Q 3103 6 2833 -42 
Q 2563 -91 2291 -91 
Q 1344 -91 809 395 
Q 275 881 275 1747 
Q 275 2613 809 3098 
Q 1344 3584 2291 3584 
Q 2566 3584 2833 3536 
Q 3100 3488 3366 3391 
z
" transform="scale(0.015625)"/>
      <path id="DejaVuSans-Bold-6e" d="M 4056 2131 
L 4056 0 
L 2931 0 
L 2931 347 
L 2931 1631 
Q 2931 2084 2911 2256 
Q 2891 2428 2841 2509 
Q 2775 2619 2662 2680 
Q 2550 2741 2406 2741 
Q 2056 2741 1856 2470 
Q 1656 2200 1656 1722 
L 1656 0 
L 538 0 
L 538 3500 
L 1656 3500 
L 1656 2988 
Q 1909 3294 2193 3439 
Q 2478 3584 2822 3584 
Q 3428 3584 3742 3212 
Q 4056 2841 4056 2131 
z
" transform="scale(0.015625)"/>
      <path id="DejaVuSans-Bold-73" d="M 3272 3391 
L 3272 2541 
Q 2913 2691 2578 2766 
Q 2244 2841 1947 2841 
Q 1628 2841 1473 2761 
Q 1319 2681 1319 2516 
Q 1319 2381 1436 2309 
Q 1553 2238 1856 2203 
L 2053 2175 
Q 2913 2066 3209 1816 
Q 3506 1566 3506 1031 
Q 3506 472 3093 190 
Q 2681 -91 1863 -91 
Q 1516 -91 1145 -36 
Q 775 19 384 128 
L 384 978 
Q 719 816 1070 734 
Q 1422 653 1784 653 
Q 2113 653 2278 743 
Q 2444 834 2444 1013 
Q 2444 1163 2330 1236 
Q 2216 1309 1875 1350 
L 1678 1375 
Q 931 1469 631 1722 
Q 331 1975 331 2491 
Q 331 3047 712 3315 
Q 1094 3584 1881 3584 
Q 2191 3584 2531 3537 
Q 2872 3491 3272 3391 
z
" transform="scale(0.015625)"/>
      <path id="DejaVuSans-Bold-75" d="M 500 1363 
L 500 3500 
L 1625 3500 
L 1625 3150 
Q 1625 2866 1622 2436 
Q 1619 2006 1619 1863 
Q 1619 1441 1641 1255 
Q 1663 1069 1716 984 
Q 1784 875 1895 815 
Q 2006 756 2150 756 
Q 2500 756 2700 1025 
Q 2900 1294 2900 1772 
L 2900 3500 
L 4019 3500 
L 4019 0 
L 2900 0 
L 2900 506 
Q 2647 200 2364 54 
Q 2081 -91 1741 -91 
Q 1134 -91 817 281 
Q 500 653 500 1363 
z
" transform="scale(0.015625)"/>
      <path id="DejaVuSans-Bold-74" d="M 1759 4494 
L 1759 3500 
L 2913 3500 
L 2913 2700 
L 1759 2700 
L 1759 1216 
Q 1759 972 1856 886 
Q 1953 800 2241 800 
L 2816 800 
L 2816 0 
L 1856 0 
Q 1194 0 917 276 
Q 641 553 641 1216 
L 641 2700 
L 84 2700 
L 84 3500 
L 641 3500 
L 641 4494 
L 1759 4494 
z
" transform="scale(0.015625)"/>
      <path id="DejaVuSans-Bold-69" d="M 538 3500 
L 1656 3500 
L 1656 0 
L 538 0 
L 538 3500 
z
M 538 4863 
L 1656 4863 
L 1656 3950 
L 538 3950 
L 538 4863 
z
" transform="scale(0.015625)"/>
      <path id="DejaVuSans-Bold-66" d="M 2841 4863 
L 2841 4128 
L 2222 4128 
Q 1984 4128 1890 4042 
Q 1797 3956 1797 3744 
L 1797 3500 
L 2753 3500 
L 2753 2700 
L 1797 2700 
L 1797 0 
L 678 0 
L 678 2700 
L 122 2700 
L 122 3500 
L 678 3500 
L 678 3744 
Q 678 4316 997 4589 
Q 1316 4863 1984 4863 
L 2841 4863 
z
" transform="scale(0.015625)"/>
      <path id="DejaVuSans-Bold-6c" d="M 538 4863 
L 1656 4863 
L 1656 0 
L 538 0 
L 538 4863 
z
" transform="scale(0.015625)"/>
      <path id="DejaVuSans-Bold-61" d="M 2106 1575 
Q 1756 1575 1579 1456 
Q 1403 1338 1403 1106 
Q 1403 894 1545 773 
Q 1688 653 1941 653 
Q 2256 653 2472 879 
Q 2688 1106 2688 1447 
L 2688 1575 
L 2106 1575 
z
M 3816 1997 
L 3816 0 
L 2688 0 
L 2688 519 
Q 2463 200 2181 54 
Q 1900 -91 1497 -91 
Q 953 -91 614 226 
Q 275 544 275 1050 
Q 275 1666 698 1953 
Q 1122 2241 2028 2241 
L 2688 2241 
L 2688 2328 
Q 2688 2594 2478 2717 
Q 2269 2841 1825 2841 
Q 1466 2841 1156 2769 
Q 847 2697 581 2553 
L 581 3406 
Q 941 3494 1303 3539 
Q 1666 3584 2028 3584 
Q 2975 3584 3395 3211 
Q 3816 2838 3816 1997 
z
" transform="scale(0.015625)"/>
      <path id="DejaVuSans-Bold-5b" d="M 550 4863 
L 2491 4863 
L 2491 4159 
L 1613 4159 
L 1613 -141 
L 2491 -141 
L 2491 -844 
L 550 -844 
L 550 4863 
z
" transform="scale(0.015625)"/>
      <path id="DejaVuSans-Bold-5d" d="M 2375 -844 
L 434 -844 
L 434 -141 
L 1313 -141 
L 1313 4159 
L 434 4159 
L 434 4863 
L 2375 4863 
L 2375 -844 
z
" transform="scale(0.015625)"/>
     </defs>
     <use xlink:href="#DejaVuSans-Bold-4d"/>
     <use xlink:href="#DejaVuSans-Bold-65" x="99.511719"/>
     <use xlink:href="#DejaVuSans-Bold-6d" x="167.333984"/>
     <use xlink:href="#DejaVuSans-Bold-6f" x="271.533203"/>
     <use xlink:href="#DejaVuSans-Bold-72" x="340.234375"/>
     <use xlink:href="#DejaVuSans-Bold-79" x="389.550781"/>
     <use xlink:href="#DejaVuSans-Bold-20" x="454.736328"/>
     <use xlink:href="#DejaVuSans-Bold-63" x="489.550781"/>
     <use xlink:href="#DejaVuSans-Bold-6f" x="548.828125"/>
     <use xlink:href="#DejaVuSans-Bold-6e" x="617.529297"/>
     <use xlink:href="#DejaVuSans-Bold-73" x="688.720703"/>
     <use xlink:href="#DejaVuSans-Bold-75" x="748.242188"/>
     <use xlink:href="#DejaVuSans-Bold-6d" x="819.433594"/>
     <use xlink:href="#DejaVuSans-Bold-74" x="923.632812"/>
     <use xlink:href="#DejaVuSans-Bold-69" x="971.435547"/>
     <use xlink:href="#DejaVuSans-Bold-6f" x="1005.712891"/>
     <use xlink:href="#DejaVuSans-Bold-6e" x="1074.414062"/>
     <use xlink:href="#DejaVuSans-Bold-20" x="1145.605469"/>
     <use xlink:href="#DejaVuSans-Bold-66" x="1180.419922"/>
     <use xlink:href="#DejaVuSans-Bold-6f" x="1223.925781"/>
     <use xlink:href="#DejaVuSans-Bold-72" x="1292.626953"/>
     <use xlink:href="#DejaVuSans-Bold-20" x="1341.943359"/>
     <use xlink:href="#DejaVuSans-Bold-66" x="1376.757812"/>
     <use xlink:href="#DejaVuSans-Bold-69" x="1420.263672"/>
     <use xlink:href="#DejaVuSans-Bold-6c" x="1454.541016"/>
     <use xlink:href="#DejaVuSans-Bold-65" x="1488.818359"/>
     <use xlink:href="#DejaVuSans-Bold-66" x="1556.640625"/>
     <use xlink:href="#DejaVuSans-Bold-6f" x="1600.146484"/>
     <use xlink:href="#DejaVuSans-Bold-72" x="1668.847656"/>
     <use xlink:href="#DejaVuSans-Bold-6d" x="1718.164062"/>
     <use xlink:href="#DejaVuSans-Bold-61" x="1822.363281"/>
     <use xlink:href="#DejaVuSans-Bold-74" x="1889.84375"/>
     <use xlink:href="#DejaVuSans-Bold-73" x="1937.646484"/>
     <use xlink:href="#DejaVuSans-Bold-20" x="1997.167969"/>
     <use xlink:href="#DejaVuSans-Bold-5b" x="2031.982422"/>
     <use xlink:href="#DejaVuSans-Bold-61" x="2077.685547"/>
     <use xlink:href="#DejaVuSans-Bold-6c" x="2145.166016"/>
     <use xlink:href="#DejaVuSans-Bold-6c" x="2179.443359"/>
     <use xlink:href="#DejaVuSans-Bold-20" x="2213.720703"/>
     <use xlink:href="#DejaVuSans-Bold-74" x="2248.535156"/>
     <use xlink:href="#DejaVuSans-Bold-65" x="2296.337891"/>
     <use xlink:href="#DejaVuSans-Bold-73" x="2364.160156"/>
     <use xlink:href="#DejaVuSans-Bold-74" x="2423.681641"/>
     <use xlink:href="#DejaVuSans-Bold-73" x="2471.484375"/>
     <use xlink:href="#DejaVuSans-Bold-5d" x="2531.005859"/>
    </g>
   </g>
   <g id="legend_1">
    <g id="patch_7">
     <path d="M 56.828125 197.793325 
L 128 197.793325 
Q 130 197.793325 130 195.793325 
L 130 138.080825 
Q 130 136.080825 128 136.080825 
L 56.828125 136.080825 
Q 54.828125 136.080825 54.828125 138.080825 
L 54.828125 195.793325 
Q 54.828125 197.793325 56.828125 197.793325 
z
" style="fill: #ffffff; opacity: 0.8; stroke: #cccccc; stroke-linejoin: miter"/>
    </g>
    <g id="line2d_22">
     <path d="M 58.828125 144.179262 
L 68.828125 144.179262 
L 78.828125 144.179262 
" style="fill: none; stroke: #1f77b4; stroke-width: 1.5; stroke-linecap: square"/>
    </g>
    <g id="text_21">
     <!-- parquet -->
     <g transform="translate(86.828125 147.679262)scale(0.1 -0.1)">
      <defs>
       <path id="DejaVuSans-70" d="M 1159 525 
L 1159 -1331 
L 581 -1331 
L 581 3500 
L 1159 3500 
L 1159 2969 
Q 1341 3281 1617 3432 
Q 1894 3584 2278 3584 
Q 2916 3584 3314 3078 
Q 3713 2572 3713 1747 
Q 3713 922 3314 415 
Q 2916 -91 2278 -91 
Q 1894 -91 1617 61 
Q 1341 213 1159 525 
z
M 3116 1747 
Q 3116 2381 2855 2742 
Q 2594 3103 2138 3103 
Q 1681 3103 1420 2742 
Q 1159 2381 1159 1747 
Q 1159 1113 1420 752 
Q 1681 391 2138 391 
Q 2594 391 2855 752 
Q 3116 1113 3116 1747 
z
" transform="scale(0.015625)"/>
       <path id="DejaVuSans-61" d="M 2194 1759 
Q 1497 1759 1228 1600 
Q 959 1441 959 1056 
Q 959 750 1161 570 
Q 1363 391 1709 391 
Q 2188 391 2477 730 
Q 2766 1069 2766 1631 
L 2766 1759 
L 2194 1759 
z
M 3341 1997 
L 3341 0 
L 2766 0 
L 2766 531 
Q 2569 213 2275 61 
Q 1981 -91 1556 -91 
Q 1019 -91 701 211 
Q 384 513 384 1019 
Q 384 1609 779 1909 
Q 1175 2209 1959 2209 
L 2766 2209 
L 2766 2266 
Q 2766 2663 2505 2880 
Q 2244 3097 1772 3097 
Q 1472 3097 1187 3025 
Q 903 2953 641 2809 
L 641 3341 
Q 956 3463 1253 3523 
Q 1550 3584 1831 3584 
Q 2591 3584 2966 3190 
Q 3341 2797 3341 1997 
z
" transform="scale(0.015625)"/>
       <path id="DejaVuSans-72" d="M 2631 2963 
Q 2534 3019 2420 3045 
Q 2306 3072 2169 3072 
Q 1681 3072 1420 2755 
Q 1159 2438 1159 1844 
L 1159 0 
L 581 0 
L 581 3500 
L 1159 3500 
L 1159 2956 
Q 1341 3275 1631 3429 
Q 1922 3584 2338 3584 
Q 2397 3584 2469 3576 
Q 2541 3569 2628 3553 
L 2631 2963 
z
" transform="scale(0.015625)"/>
       <path id="DejaVuSans-71" d="M 947 1747 
Q 947 1113 1208 752 
Q 1469 391 1925 391 
Q 2381 391 2643 752 
Q 2906 1113 2906 1747 
Q 2906 2381 2643 2742 
Q 2381 3103 1925 3103 
Q 1469 3103 1208 2742 
Q 947 2381 947 1747 
z
M 2906 525 
Q 2725 213 2448 61 
Q 2172 -91 1784 -91 
Q 1150 -91 751 415 
Q 353 922 353 1747 
Q 353 2572 751 3078 
Q 1150 3584 1784 3584 
Q 2172 3584 2448 3432 
Q 2725 3281 2906 2969 
L 2906 3500 
L 3481 3500 
L 3481 -1331 
L 2906 -1331 
L 2906 525 
z
" transform="scale(0.015625)"/>
       <path id="DejaVuSans-75" d="M 544 1381 
L 544 3500 
L 1119 3500 
L 1119 1403 
Q 1119 906 1312 657 
Q 1506 409 1894 409 
Q 2359 409 2629 706 
Q 2900 1003 2900 1516 
L 2900 3500 
L 3475 3500 
L 3475 0 
L 2900 0 
L 2900 538 
Q 2691 219 2414 64 
Q 2138 -91 1772 -91 
Q 1169 -91 856 284 
Q 544 659 544 1381 
z
M 1991 3584 
L 1991 3584 
z
" transform="scale(0.015625)"/>
       <path id="DejaVuSans-65" d="M 3597 1894 
L 3597 1613 
L 953 1613 
Q 991 1019 1311 708 
Q 1631 397 2203 397 
Q 2534 397 2845 478 
Q 3156 559 3463 722 
L 3463 178 
Q 3153 47 2828 -22 
Q 2503 -91 2169 -91 
Q 1331 -91 842 396 
Q 353 884 353 1716 
Q 353 2575 817 3079 
Q 1281 3584 2069 3584 
Q 2775 3584 3186 3129 
Q 3597 2675 3597 1894 
z
M 3022 2063 
Q 3016 2534 2758 2815 
Q 2500 3097 2075 3097 
Q 1594 3097 1305 2825 
Q 1016 2553 972 2059 
L 3022 2063 
z
" transform="scale(0.015625)"/>
       <path id="DejaVuSans-74" d="M 1172 4494 
L 1172 3500 
L 2356 3500 
L 2356 3053 
L 1172 3053 
L 1172 1153 
Q 1172 725 1289 603 
Q 1406 481 1766 481 
L 2356 481 
L 2356 0 
L 1766 0 
Q 1100 0 847 248 
Q 594 497 594 1153 
L 594 3053 
L 172 3053 
L 172 3500 
L 594 3500 
L 594 4494 
L 1172 4494 
z
" transform="scale(0.015625)"/>
      </defs>
      <use xlink:href="#DejaVuSans-70"/>
      <use xlink:href="#DejaVuSans-61" x="63.476562"/>
      <use xlink:href="#DejaVuSans-72" x="124.755859"/>
      <use xlink:href="#DejaVuSans-71" x="164.119141"/>
      <use xlink:href="#DejaVuSans-75" x="227.595703"/>
      <use xlink:href="#DejaVuSans-65" x="290.974609"/>
      <use xlink:href="#DejaVuSans-74" x="352.498047"/>
     </g>
    </g>
    <g id="line2d_23">
     <path d="M 58.828125 158.857388 
L 68.828125 158.857388 
L 78.828125 158.857388 
" style="fill: none; stroke: #ff7f0e; stroke-width: 1.5; stroke-linecap: square"/>
    </g>
    <g id="text_22">
     <!-- orc -->
     <g transform="translate(86.828125 162.357388)scale(0.1 -0.1)">
      <defs>
       <path id="DejaVuSans-6f" d="M 1959 3097 
Q 1497 3097 1228 2736 
Q 959 2375 959 1747 
Q 959 1119 1226 758 
Q 1494 397 1959 397 
Q 2419 397 2687 759 
Q 2956 1122 2956 1747 
Q 2956 2369 2687 2733 
Q 2419 3097 1959 3097 
z
M 1959 3584 
Q 2709 3584 3137 3096 
Q 3566 2609 3566 1747 
Q 3566 888 3137 398 
Q 2709 -91 1959 -91 
Q 1206 -91 779 398 
Q 353 888 353 1747 
Q 353 2609 779 3096 
Q 1206 3584 1959 3584 
z
" transform="scale(0.015625)"/>
       <path id="DejaVuSans-63" d="M 3122 3366 
L 3122 2828 
Q 2878 2963 2633 3030 
Q 2388 3097 2138 3097 
Q 1578 3097 1268 2742 
Q 959 2388 959 1747 
Q 959 1106 1268 751 
Q 1578 397 2138 397 
Q 2388 397 2633 464 
Q 2878 531 3122 666 
L 3122 134 
Q 2881 22 2623 -34 
Q 2366 -91 2075 -91 
Q 1284 -91 818 406 
Q 353 903 353 1747 
Q 353 2603 823 3093 
Q 1294 3584 2113 3584 
Q 2378 3584 2631 3529 
Q 2884 3475 3122 3366 
z
" transform="scale(0.015625)"/>
      </defs>
      <use xlink:href="#DejaVuSans-6f"/>
      <use xlink:href="#DejaVuSans-72" x="61.181641"/>
      <use xlink:href="#DejaVuSans-63" x="100.044922"/>
     </g>
    </g>
    <g id="line2d_24">
     <path d="M 58.828125 173.535513 
L 68.828125 173.535513 
L 78.828125 173.535513 
" style="fill: none; stroke: #2ca02c; stroke-width: 1.5; stroke-linecap: square"/>
    </g>
    <g id="text_23">
     <!-- feather -->
     <g transform="translate(86.828125 177.035513)scale(0.1 -0.1)">
      <defs>
       <path id="DejaVuSans-66" d="M 2375 4863 
L 2375 4384 
L 1825 4384 
Q 1516 4384 1395 4259 
Q 1275 4134 1275 3809 
L 1275 3500 
L 2222 3500 
L 2222 3053 
L 1275 3053 
L 1275 0 
L 697 0 
L 697 3053 
L 147 3053 
L 147 3500 
L 697 3500 
L 697 3744 
Q 697 4328 969 4595 
Q 1241 4863 1831 4863 
L 2375 4863 
z
" transform="scale(0.015625)"/>
       <path id="DejaVuSans-68" d="M 3513 2113 
L 3513 0 
L 2938 0 
L 2938 2094 
Q 2938 2591 2744 2837 
Q 2550 3084 2163 3084 
Q 1697 3084 1428 2787 
Q 1159 2491 1159 1978 
L 1159 0 
L 581 0 
L 581 4863 
L 1159 4863 
L 1159 2956 
Q 1366 3272 1645 3428 
Q 1925 3584 2291 3584 
Q 2894 3584 3203 3211 
Q 3513 2838 3513 2113 
z
" transform="scale(0.015625)"/>
      </defs>
      <use xlink:href="#DejaVuSans-66"/>
      <use xlink:href="#DejaVuSans-65" x="35.205078"/>
      <use xlink:href="#DejaVuSans-61" x="96.728516"/>
      <use xlink:href="#DejaVuSans-74" x="158.007812"/>
      <use xlink:href="#DejaVuSans-68" x="197.216797"/>
      <use xlink:href="#DejaVuSans-65" x="260.595703"/>
      <use xlink:href="#DejaVuSans-72" x="322.119141"/>
     </g>
    </g>
    <g id="line2d_25">
     <path d="M 58.828125 188.213638 
L 68.828125 188.213638 
L 78.828125 188.213638 
" style="fill: none; stroke: #d62728; stroke-width: 1.5; stroke-linecap: square"/>
    </g>
    <g id="text_24">
     <!-- csv -->
     <g transform="translate(86.828125 191.713638)scale(0.1 -0.1)">
      <defs>
       <path id="DejaVuSans-73" d="M 2834 3397 
L 2834 2853 
Q 2591 2978 2328 3040 
Q 2066 3103 1784 3103 
Q 1356 3103 1142 2972 
Q 928 2841 928 2578 
Q 928 2378 1081 2264 
Q 1234 2150 1697 2047 
L 1894 2003 
Q 2506 1872 2764 1633 
Q 3022 1394 3022 966 
Q 3022 478 2636 193 
Q 2250 -91 1575 -91 
Q 1294 -91 989 -36 
Q 684 19 347 128 
L 347 722 
Q 666 556 975 473 
Q 1284 391 1588 391 
Q 1994 391 2212 530 
Q 2431 669 2431 922 
Q 2431 1156 2273 1281 
Q 2116 1406 1581 1522 
L 1381 1569 
Q 847 1681 609 1914 
Q 372 2147 372 2553 
Q 372 3047 722 3315 
Q 1072 3584 1716 3584 
Q 2034 3584 2315 3537 
Q 2597 3491 2834 3397 
z
" transform="scale(0.015625)"/>
       <path id="DejaVuSans-76" d="M 191 3500 
L 800 3500 
L 1894 563 
L 2988 3500 
L 3597 3500 
L 2284 0 
L 1503 0 
L 191 3500 
z
" transform="scale(0.015625)"/>
      </defs>
      <use xlink:href="#DejaVuSans-63"/>
      <use xlink:href="#DejaVuSans-73" x="54.980469"/>
      <use xlink:href="#DejaVuSans-76" x="107.080078"/>
     </g>
    </g>
   </g>
  </g>
 </g>
 <defs>
  <clipPath id="p2684673a32">
   <rect x="49.828125" y="22.318125" width="416.826" height="180.4752"/>
  </clipPath>
 </defs>
</svg>
